<svg width="1253" height="33" viewBox="0 0 1253 33" fill="none" xmlns="http://www.w3.org/2000/svg">
<mask id="mask0_472_2407" style="mask-type:alpha" maskUnits="userSpaceOnUse" x="0" y="0" width="21" height="33">
<path d="M0 0H20.1667V33H0V0Z" fill="#D9D9D9"/>
</mask>
<g mask="url(#mask0_472_2407)">
<path d="M4.99811 7.93987H7.79175V5.54406H4.99811V7.93987ZM10.5854 7.93987V5.54406H13.379V7.93987H10.5854ZM4.99811 17.5231V15.1273H7.79175V17.5231H4.99811ZM16.1727 12.7315V10.3357H18.9664V12.7315H16.1727ZM16.1727 17.5231V15.1273H18.9664V17.5231H16.1727ZM10.5854 17.5231V15.1273H13.379V17.5231H10.5854ZM16.1727 7.93987V5.54406H18.9664V7.93987H16.1727ZM7.79175 10.3357V7.93987H10.5854V10.3357H7.79175ZM0 31.8215V4.71436L2.20443 4.7144V7.93987H4.99811V10.3357H2.20443V12.7315H4.99811V15.1273H2.20443V31.8215H0ZM13.379 15.1273V12.7315H16.1727V15.1273H13.379ZM7.79175 15.1273V12.7315H10.5854V15.1273H7.79175ZM4.99811 12.7315V10.3357H7.79175V12.7315H4.99811ZM10.5854 12.7315V10.3357H13.379V12.7315H10.5854ZM13.379 10.3357V7.93987H16.1727V10.3357H13.379Z" fill="#FFB500"/>
</g>
<mask id="mask1_472_2407" style="mask-type:alpha" maskUnits="userSpaceOnUse" x="233" y="0" width="34" height="33">
<rect x="233.733" width="33" height="33" fill="#D9D9D9"/>
</mask>
<g mask="url(#mask1_472_2407)">
<path d="M240.608 32.083V4.58301H242.9V7.42469H262.608L259.835 14.1393L262.608 20.8538H242.9V32.083H240.608ZM250.949 16.7059C251.656 16.7059 252.26 16.4541 252.76 15.9505C253.26 15.447 253.51 14.8416 253.51 14.1344C253.51 13.4272 253.259 12.8235 252.755 12.3231C252.251 11.8228 251.646 11.5726 250.939 11.5726C250.232 11.5726 249.628 11.8244 249.128 12.328C248.627 12.8316 248.377 13.437 248.377 14.1441C248.377 14.8513 248.629 15.4551 249.133 15.9554C249.636 16.4557 250.242 16.7059 250.949 16.7059Z" fill="#FFB500"/>
</g>
<mask id="mask2_472_2407" style="mask-type:alpha" maskUnits="userSpaceOnUse" x="480" y="0" width="34" height="33">
<rect x="480.3" width="33" height="33" fill="#D9D9D9"/>
</mask>
<g mask="url(#mask2_472_2407)">
<path d="M487.175 32.083V4.58301H489.466V7.42469H509.175L506.402 14.1393L509.175 20.8538H489.466V32.083H487.175ZM497.515 16.7059C498.222 16.7059 498.826 16.4541 499.326 15.9505C499.827 15.447 500.077 14.8416 500.077 14.1344C500.077 13.4272 499.825 12.8235 499.321 12.3231C498.818 11.8228 498.213 11.5726 497.505 11.5726C496.798 11.5726 496.194 11.8244 495.694 12.328C495.194 12.8316 494.944 13.437 494.944 14.1441C494.944 14.8513 495.195 15.4551 495.699 15.9554C496.203 16.4557 496.808 16.7059 497.515 16.7059Z" fill="#BCBCBC"/>
</g>
<mask id="mask3_472_2407" style="mask-type:alpha" maskUnits="userSpaceOnUse" x="726" y="0" width="34" height="33">
<rect x="726.867" width="33" height="33" fill="#D9D9D9"/>
</mask>
<g mask="url(#mask3_472_2407)">
<path d="M733.742 32.083V4.58301H736.033V7.42469H755.742L752.969 14.1393L755.742 20.8538H736.033V32.083H733.742ZM744.082 16.7059C744.789 16.7059 745.393 16.4541 745.893 15.9505C746.394 15.447 746.644 14.8416 746.644 14.1344C746.644 13.4272 746.392 12.8235 745.888 12.3231C745.385 11.8228 744.779 11.5726 744.072 11.5726C743.365 11.5726 742.761 11.8244 742.261 12.328C741.761 12.8316 741.51 13.437 741.51 14.1441C741.51 14.8513 741.762 15.4551 742.266 15.9554C742.769 16.4557 743.375 16.7059 744.082 16.7059Z" fill="#BCBCBC"/>
</g>
<mask id="mask4_472_2407" style="mask-type:alpha" maskUnits="userSpaceOnUse" x="973" y="0" width="34" height="33">
<rect x="973.434" width="33" height="33" fill="#D9D9D9"/>
</mask>
<g mask="url(#mask4_472_2407)">
<path d="M980.309 32.083V4.58301H982.601V7.42469H1002.31L999.536 14.1393L1002.31 20.8538H982.601V32.083H980.309ZM990.649 16.7059C991.357 16.7059 991.96 16.4541 992.461 15.9505C992.961 15.447 993.211 14.8416 993.211 14.1344C993.211 13.4272 992.959 12.8235 992.456 12.3231C991.952 11.8228 991.347 11.5726 990.64 11.5726C989.932 11.5726 989.329 11.8244 988.828 12.328C988.328 12.8316 988.078 13.437 988.078 14.1441C988.078 14.8513 988.33 15.4551 988.833 15.9554C989.337 16.4557 989.942 16.7059 990.649 16.7059Z" fill="#BCBCBC"/>
</g>
<mask id="mask5_472_2407" style="mask-type:alpha" maskUnits="userSpaceOnUse" x="1220" y="0" width="33" height="33">
<rect x="1220" width="33" height="33" fill="#D9D9D9"/>
</mask>
<g mask="url(#mask5_472_2407)">
<path d="M1226.88 32.0835V4.5835H1229.17V7.42517H1248.87L1246.1 14.1397L1248.87 20.8543H1229.17V32.0835H1226.88ZM1237.22 16.7064C1237.92 16.7064 1238.53 16.4546 1239.03 15.951C1239.53 15.4474 1239.78 14.842 1239.78 14.1349C1239.78 13.4277 1239.53 12.824 1239.02 12.3236C1238.52 11.8232 1237.91 11.5731 1237.21 11.5731C1236.5 11.5731 1235.89 11.8249 1235.39 12.3285C1234.89 12.8321 1234.64 13.4374 1234.64 14.1446C1234.64 14.8518 1234.9 15.4555 1235.4 15.9559C1235.9 16.4562 1236.51 16.7064 1237.22 16.7064Z" fill="#4CAF50"/>
</g>
</svg>
