<svg width="320" height="22" viewBox="0 0 320 22" fill="none" xmlns="http://www.w3.org/2000/svg">
<mask id="mask0_491_662" style="mask-type:alpha" maskUnits="userSpaceOnUse" x="0" y="0" width="14" height="22">
<path d="M0 0H13.4444V22H0V0Z" fill="#D9D9D9"/>
</mask>
<g mask="url(#mask0_491_662)">
<path d="M3.33208 5.29316H5.1945V3.69596H3.33208V5.29316ZM7.05693 5.29316V3.69596H8.91935V5.29316H7.05693ZM3.33208 11.682V10.0848H5.1945V11.682H3.33208ZM10.7818 8.4876V6.89039H12.6442V8.4876H10.7818ZM10.7818 11.682V10.0848H12.6442V11.682H10.7818ZM7.05693 11.682V10.0848H8.91935V11.682H7.05693ZM10.7818 5.29316V3.69596H12.6442V5.29316H10.7818ZM5.1945 6.89039V5.29316H7.05693V6.89039H5.1945ZM0 21.2143V3.14282L1.46962 3.14285V5.29316H3.33208V6.89039H1.46962V8.4876H3.33208V10.0848H1.46962V21.2143H0ZM8.91935 10.0848V8.4876H10.7818V10.0848H8.91935ZM5.1945 10.0848V8.4876H7.05693V10.0848H5.1945ZM3.33208 8.4876V6.89039H5.1945V8.4876H3.33208ZM7.05693 8.4876V6.89039H8.91935V8.4876H7.05693ZM8.91935 6.89039V5.29316H10.7818V6.89039H8.91935Z" fill="#CB9200"/>
</g>
<mask id="mask1_491_662" style="mask-type:alpha" maskUnits="userSpaceOnUse" x="52" y="0" width="23" height="22">
<rect x="52.7556" width="22" height="22" fill="#D9D9D9"/>
</mask>
<g mask="url(#mask1_491_662)">
<path d="M57.3387 21.3888V3.05542H58.8665V4.94987H72.0054L70.1568 9.42625L72.0054 13.9026H58.8665V21.3888H57.3387ZM64.2323 11.1374C64.7037 11.1374 65.1062 10.9695 65.4398 10.6338C65.7733 10.298 65.9401 9.89446 65.9401 9.423C65.9401 8.95156 65.7723 8.54906 65.4365 8.2155C65.1008 7.88192 64.6972 7.71514 64.2258 7.71514C63.7543 7.71514 63.3518 7.883 63.0183 8.21873C62.6847 8.55446 62.5179 8.95805 62.5179 9.42951C62.5179 9.90095 62.6858 10.3035 63.0215 10.637C63.3572 10.9706 63.7608 11.1374 64.2323 11.1374Z" fill="#FFB500"/>
</g>
<mask id="mask2_491_662" style="mask-type:alpha" maskUnits="userSpaceOnUse" x="114" y="0" width="23" height="22">
<rect x="114.067" width="22" height="22" fill="#D9D9D9"/>
</mask>
<g mask="url(#mask2_491_662)">
<path d="M118.65 21.3888V3.05542H120.178V4.94987H133.317L131.468 9.42625L133.317 13.9026H120.178V21.3888H118.65ZM125.543 11.1374C126.015 11.1374 126.417 10.9695 126.751 10.6338C127.085 10.298 127.251 9.89446 127.251 9.423C127.251 8.95156 127.083 8.54906 126.748 8.2155C126.412 7.88192 126.008 7.71514 125.537 7.71514C125.065 7.71514 124.663 7.883 124.329 8.21873C123.996 8.55446 123.829 8.95805 123.829 9.42951C123.829 9.90095 123.997 10.3035 124.333 10.637C124.668 10.9706 125.072 11.1374 125.543 11.1374Z" fill="#FFB500"/>
</g>
<mask id="mask3_491_662" style="mask-type:alpha" maskUnits="userSpaceOnUse" x="175" y="0" width="23" height="22">
<rect x="175.378" width="22" height="22" fill="#D9D9D9"/>
</mask>
<g mask="url(#mask3_491_662)">
<path d="M179.961 21.3888V3.05542H181.489V4.94987H194.628L192.779 9.42625L194.628 13.9026H181.489V21.3888H179.961ZM186.855 11.1374C187.326 11.1374 187.729 10.9695 188.062 10.6338C188.396 10.298 188.562 9.89446 188.562 9.423C188.562 8.95156 188.395 8.54906 188.059 8.2155C187.723 7.88192 187.32 7.71514 186.848 7.71514C186.377 7.71514 185.974 7.883 185.641 8.21873C185.307 8.55446 185.14 8.95805 185.14 9.42951C185.14 9.90095 185.308 10.3035 185.644 10.637C185.98 10.9706 186.383 11.1374 186.855 11.1374Z" fill="#FFB500"/>
</g>
<mask id="mask4_491_662" style="mask-type:alpha" maskUnits="userSpaceOnUse" x="236" y="0" width="23" height="22">
<rect x="236.689" width="22" height="22" fill="#D9D9D9"/>
</mask>
<g mask="url(#mask4_491_662)">
<path d="M241.273 21.3888V3.05542H242.8V4.94987H255.939L254.091 9.42625L255.939 13.9026H242.8V21.3888H241.273ZM248.166 11.1374C248.638 11.1374 249.04 10.9695 249.374 10.6338C249.707 10.298 249.874 9.89446 249.874 9.423C249.874 8.95156 249.706 8.54906 249.37 8.2155C249.035 7.88192 248.631 7.71514 248.16 7.71514C247.688 7.71514 247.286 7.883 246.952 8.21873C246.619 8.55446 246.452 8.95805 246.452 9.42951C246.452 9.90095 246.62 10.3035 246.955 10.637C247.291 10.9706 247.695 11.1374 248.166 11.1374Z" fill="#BCBCBC"/>
</g>
<mask id="mask5_491_662" style="mask-type:alpha" maskUnits="userSpaceOnUse" x="298" y="0" width="22" height="22">
<rect x="298" width="22" height="22" fill="#D9D9D9"/>
</mask>
<g mask="url(#mask5_491_662)">
<path d="M302.583 21.3889V3.05554H304.111V4.94999H317.25L315.402 9.42638L317.25 13.9028H304.111V21.3889H302.583ZM309.477 11.1375C309.948 11.1375 310.351 10.9696 310.685 10.6339C311.018 10.2982 311.185 9.89458 311.185 9.42312C311.185 8.95168 311.017 8.54918 310.681 8.21562C310.346 7.88204 309.942 7.71526 309.471 7.71526C308.999 7.71526 308.597 7.88312 308.263 8.21885C307.929 8.55458 307.763 8.95817 307.763 9.42963C307.763 9.90107 307.931 10.3036 308.266 10.6371C308.602 10.9707 309.006 11.1375 309.477 11.1375Z" fill="#4CAF50"/>
</g>
</svg>
