<svg width="1253" height="34" viewBox="0 0 1253 34" fill="none" xmlns="http://www.w3.org/2000/svg">
<mask id="mask0_472_2388" style="mask-type:alpha" maskUnits="userSpaceOnUse" x="0" y="0" width="21" height="34">
<path d="M0 0.5H20.1667V33.5H0V0.5Z" fill="#D9D9D9"/>
</mask>
<g mask="url(#mask0_472_2388)">
<path d="M4.99811 8.43987H7.79175V6.04406H4.99811V8.43987ZM10.5854 8.43987V6.04406H13.379V8.43987H10.5854ZM4.99811 18.0231V15.6273H7.79175V18.0231H4.99811ZM16.1727 13.2315V10.8357H18.9664V13.2315H16.1727ZM16.1727 18.0231V15.6273H18.9664V18.0231H16.1727ZM10.5854 18.0231V15.6273H13.379V18.0231H10.5854ZM16.1727 8.43987V6.04406H18.9664V8.43987H16.1727ZM7.79175 10.8357V8.43987H10.5854V10.8357H7.79175ZM0 32.3215V5.21436L2.20443 5.2144V8.43987H4.99811V10.8357H2.20443V13.2315H4.99811V15.6273H2.20443V32.3215H0ZM13.379 15.6273V13.2315H16.1727V15.6273H13.379ZM7.79175 15.6273V13.2315H10.5854V15.6273H7.79175ZM4.99811 13.2315V10.8357H7.79175V13.2315H4.99811ZM10.5854 13.2315V10.8357H13.379V13.2315H10.5854ZM13.379 10.8357V8.43987H16.1727V10.8357H13.379Z" fill="#FFB500"/>
</g>
<mask id="mask1_472_2388" style="mask-type:alpha" maskUnits="userSpaceOnUse" x="233" y="0" width="34" height="34">
<rect x="233.733" y="0.5" width="33" height="33" fill="#D9D9D9"/>
</mask>
<g mask="url(#mask1_472_2388)">
<path d="M240.608 32.583V5.08301H242.9V7.92469H262.608L259.835 14.6393L262.608 21.3538H242.9V32.583H240.608ZM250.949 17.2059C251.656 17.2059 252.26 16.9541 252.76 16.4505C253.26 15.947 253.51 15.3416 253.51 14.6344C253.51 13.9272 253.259 13.3235 252.755 12.8231C252.251 12.3228 251.646 12.0726 250.939 12.0726C250.232 12.0726 249.628 12.3244 249.128 12.828C248.627 13.3316 248.377 13.937 248.377 14.6441C248.377 15.3513 248.629 15.9551 249.133 16.4554C249.636 16.9557 250.242 17.2059 250.949 17.2059Z" fill="#BCBCBC"/>
</g>
<mask id="mask2_472_2388" style="mask-type:alpha" maskUnits="userSpaceOnUse" x="480" y="0" width="34" height="34">
<rect x="480.3" y="0.5" width="33" height="33" fill="#D9D9D9"/>
</mask>
<g mask="url(#mask2_472_2388)">
<path d="M487.175 32.583V5.08301H489.466V7.92469H509.175L506.402 14.6393L509.175 21.3538H489.466V32.583H487.175ZM497.515 17.2059C498.222 17.2059 498.826 16.9541 499.326 16.4505C499.827 15.947 500.077 15.3416 500.077 14.6344C500.077 13.9272 499.825 13.3235 499.321 12.8231C498.818 12.3228 498.213 12.0726 497.505 12.0726C496.798 12.0726 496.194 12.3244 495.694 12.828C495.194 13.3316 494.944 13.937 494.944 14.6441C494.944 15.3513 495.195 15.9551 495.699 16.4554C496.203 16.9557 496.808 17.2059 497.515 17.2059Z" fill="#BCBCBC"/>
</g>
<mask id="mask3_472_2388" style="mask-type:alpha" maskUnits="userSpaceOnUse" x="726" y="0" width="34" height="34">
<rect x="726.867" y="0.5" width="33" height="33" fill="#D9D9D9"/>
</mask>
<g mask="url(#mask3_472_2388)">
<path d="M733.742 32.583V5.08301H736.033V7.92469H755.742L752.969 14.6393L755.742 21.3538H736.033V32.583H733.742ZM744.082 17.2059C744.789 17.2059 745.393 16.9541 745.893 16.4505C746.394 15.947 746.644 15.3416 746.644 14.6344C746.644 13.9272 746.392 13.3235 745.888 12.8231C745.385 12.3228 744.779 12.0726 744.072 12.0726C743.365 12.0726 742.761 12.3244 742.261 12.828C741.761 13.3316 741.51 13.937 741.51 14.6441C741.51 15.3513 741.762 15.9551 742.266 16.4554C742.769 16.9557 743.375 17.2059 744.082 17.2059Z" fill="#BCBCBC"/>
</g>
<mask id="mask4_472_2388" style="mask-type:alpha" maskUnits="userSpaceOnUse" x="973" y="0" width="34" height="34">
<rect x="973.434" y="0.5" width="33" height="33" fill="#D9D9D9"/>
</mask>
<g mask="url(#mask4_472_2388)">
<path d="M980.309 32.583V5.08301H982.601V7.92469H1002.31L999.536 14.6393L1002.31 21.3538H982.601V32.583H980.309ZM990.649 17.2059C991.357 17.2059 991.96 16.9541 992.461 16.4505C992.961 15.947 993.211 15.3416 993.211 14.6344C993.211 13.9272 992.959 13.3235 992.456 12.8231C991.952 12.3228 991.347 12.0726 990.64 12.0726C989.932 12.0726 989.329 12.3244 988.828 12.828C988.328 13.3316 988.078 13.937 988.078 14.6441C988.078 15.3513 988.33 15.9551 988.833 16.4554C989.337 16.9557 989.942 17.2059 990.649 17.2059Z" fill="#BCBCBC"/>
</g>
<mask id="mask5_472_2388" style="mask-type:alpha" maskUnits="userSpaceOnUse" x="1220" y="0" width="33" height="34">
<rect x="1220" y="0.5" width="33" height="33" fill="#D9D9D9"/>
</mask>
<g mask="url(#mask5_472_2388)">
<path d="M1226.88 32.5835V5.0835H1229.17V7.92517H1248.87L1246.1 14.6397L1248.87 21.3543H1229.17V32.5835H1226.88ZM1237.22 17.2064C1237.92 17.2064 1238.53 16.9546 1239.03 16.451C1239.53 15.9474 1239.78 15.342 1239.78 14.6349C1239.78 13.9277 1239.53 13.324 1239.02 12.8236C1238.52 12.3232 1237.91 12.0731 1237.21 12.0731C1236.5 12.0731 1235.89 12.3249 1235.39 12.8285C1234.89 13.3321 1234.64 13.9374 1234.64 14.6446C1234.64 15.3518 1234.9 15.9555 1235.4 16.4559C1235.9 16.9562 1236.51 17.2064 1237.22 17.2064Z" fill="#4CAF50"/>
</g>
</svg>
