<svg width="1253" height="33" viewBox="0 0 1253 33" fill="none" xmlns="http://www.w3.org/2000/svg">
<mask id="mask0_468_980" style="mask-type:alpha" maskUnits="userSpaceOnUse" x="0" y="0" width="21" height="33">
<path d="M0 0H20.1667V33H0V0Z" fill="#D9D9D9"/>
</mask>
<g mask="url(#mask0_468_980)">
<path d="M4.99812 7.93975H7.79175V5.54394H4.99812V7.93975ZM10.5854 7.93975V5.54394H13.379V7.93975H10.5854ZM4.99812 17.523V15.1272H7.79175V17.523H4.99812ZM16.1727 12.7314V10.3356H18.9664V12.7314H16.1727ZM16.1727 17.523V15.1272H18.9664V17.523H16.1727ZM10.5854 17.523V15.1272H13.379V17.523H10.5854ZM16.1727 7.93975V5.54394H18.9664V7.93975H16.1727ZM7.79175 10.3356V7.93975H10.5854V10.3356H7.79175ZM0 31.8214V4.71423L2.20443 4.71427V7.93975H4.99812V10.3356H2.20443V12.7314H4.99812V15.1272H2.20443V31.8214H0ZM13.379 15.1272V12.7314H16.1727V15.1272H13.379ZM7.79175 15.1272V12.7314H10.5854V15.1272H7.79175ZM4.99812 12.7314V10.3356H7.79175V12.7314H4.99812ZM10.5854 12.7314V10.3356H13.379V12.7314H10.5854ZM13.379 10.3356V7.93975H16.1727V10.3356H13.379Z" fill="#FFB500"/>
</g>
<mask id="mask1_468_980" style="mask-type:alpha" maskUnits="userSpaceOnUse" x="233" y="0" width="34" height="33">
<rect x="233.733" width="33" height="33" fill="#D9D9D9"/>
</mask>
<g mask="url(#mask1_468_980)">
<path d="M240.608 32.0831V4.58313H242.9V7.42481H262.608L259.835 14.1394L262.608 20.854H242.9V32.0831H240.608ZM250.949 16.706C251.656 16.706 252.26 16.4542 252.76 15.9507C253.26 15.4471 253.51 14.8417 253.51 14.1345C253.51 13.4273 253.259 12.8236 252.755 12.3232C252.251 11.8229 251.646 11.5727 250.939 11.5727C250.232 11.5727 249.628 11.8245 249.128 12.3281C248.627 12.8317 248.377 13.4371 248.377 14.1443C248.377 14.8514 248.629 15.4552 249.132 15.9555C249.636 16.4559 250.241 16.706 250.949 16.706Z" fill="#BCBCBC"/>
</g>
<mask id="mask2_468_980" style="mask-type:alpha" maskUnits="userSpaceOnUse" x="480" y="0" width="34" height="33">
<rect x="480.3" width="33" height="33" fill="#D9D9D9"/>
</mask>
<g mask="url(#mask2_468_980)">
<path d="M487.175 32.0831V4.58313H489.466V7.42481H509.175L506.402 14.1394L509.175 20.854H489.466V32.0831H487.175ZM497.515 16.706C498.222 16.706 498.826 16.4542 499.326 15.9507C499.827 15.4471 500.077 14.8417 500.077 14.1345C500.077 13.4273 499.825 12.8236 499.321 12.3232C498.818 11.8229 498.213 11.5727 497.505 11.5727C496.798 11.5727 496.194 11.8245 495.694 12.3281C495.194 12.8317 494.944 13.4371 494.944 14.1443C494.944 14.8514 495.195 15.4552 495.699 15.9555C496.203 16.4559 496.808 16.706 497.515 16.706Z" fill="#BCBCBC"/>
</g>
<mask id="mask3_468_980" style="mask-type:alpha" maskUnits="userSpaceOnUse" x="726" y="0" width="34" height="33">
<rect x="726.867" width="33" height="33" fill="#D9D9D9"/>
</mask>
<g mask="url(#mask3_468_980)">
<path d="M733.742 32.0831V4.58313H736.033V7.42481H755.742L752.969 14.1394L755.742 20.854H736.033V32.0831H733.742ZM744.082 16.706C744.789 16.706 745.393 16.4542 745.893 15.9507C746.394 15.4471 746.644 14.8417 746.644 14.1345C746.644 13.4273 746.392 12.8236 745.888 12.3232C745.385 11.8229 744.779 11.5727 744.072 11.5727C743.365 11.5727 742.761 11.8245 742.261 12.3281C741.761 12.8317 741.51 13.4371 741.51 14.1443C741.51 14.8514 741.762 15.4552 742.266 15.9555C742.769 16.4559 743.375 16.706 744.082 16.706Z" fill="#BCBCBC"/>
</g>
<mask id="mask4_468_980" style="mask-type:alpha" maskUnits="userSpaceOnUse" x="973" y="0" width="34" height="33">
<rect x="973.433" width="33" height="33" fill="#D9D9D9"/>
</mask>
<g mask="url(#mask4_468_980)">
<path d="M980.309 32.0831V4.58313H982.601V7.42481H1002.31L999.536 14.1394L1002.31 20.854H982.601V32.0831H980.309ZM990.649 16.706C991.356 16.706 991.96 16.4542 992.461 15.9507C992.961 15.4471 993.211 14.8417 993.211 14.1345C993.211 13.4273 992.959 12.8236 992.456 12.3232C991.952 11.8229 991.347 11.5727 990.64 11.5727C989.932 11.5727 989.329 11.8245 988.828 12.3281C988.328 12.8317 988.078 13.4371 988.078 14.1443C988.078 14.8514 988.33 15.4552 988.833 15.9555C989.337 16.4559 989.942 16.706 990.649 16.706Z" fill="#BCBCBC"/>
</g>
<mask id="mask5_468_980" style="mask-type:alpha" maskUnits="userSpaceOnUse" x="1220" y="0" width="33" height="33">
<rect x="1220" width="33" height="33" fill="#D9D9D9"/>
</mask>
<g mask="url(#mask5_468_980)">
<path d="M1226.88 32.0833V4.58331H1229.17V7.42499H1248.88L1246.1 14.1396L1248.88 20.8541H1229.17V32.0833H1226.88ZM1237.22 16.7062C1237.92 16.7062 1238.53 16.4544 1239.03 15.9509C1239.53 15.4473 1239.78 14.8419 1239.78 14.1347C1239.78 13.4275 1239.53 12.8238 1239.02 12.3234C1238.52 11.8231 1237.91 11.5729 1237.21 11.5729C1236.5 11.5729 1235.89 11.8247 1235.39 12.3283C1234.89 12.8319 1234.64 13.4373 1234.64 14.1444C1234.64 14.8516 1234.9 15.4554 1235.4 15.9557C1235.9 16.456 1236.51 16.7062 1237.22 16.7062Z" fill="#4CAF50"/>
</g>
</svg>
